#!OML:ASF X:\für Bonn\!DataBase\2005_08_11_Bastian_Final\c3d\Bastian.ASF
:FULLY-SPECIFIED
:DEGREES
215
root 6.30006 14.573 -2.92527 149.476 74.8006 -212.614
lowerback 64.3794 -9.28442 11.4124
upperback 17.2206 3.45833 6.3164
thorax -1.52924 3.73368 1.02412
lowerneck -3.84463 -13.0848 2.07452
upperneck -27.9692 -14.7164 16.5802
head -6.79491 -8.63737 5.64259
rclavicle -3.18055e-015 -4.4329e-014
rhumerus 26.9183 6.45998 -39.8012
rradius 22.0371
rwrist -5.64148
rhand -35.1678 -2.88957
rfingers 7.12502
rthumb -8.30667 -32.7063
lclavicle -3.18055e-015 -4.4329e-014
lhumerus 15.4128 -36.4672 75.6239
lradius 47.1054
lwrist 23.0317
lhand -12.6938 -9.11464
lfingers 7.12502
lthumb 13.3883 20.4352
rfemur -56.881 -2.61512 8.53552
rtibia 80.2086
rfoot -15.6251 -7.6166
rtoes -16.9536
lfemur -48.5934 -2.72337 -33.7027
ltibia 74.3977
lfoot -17.1211 -10.9334
ltoes 9.12653
216
root 6.32287 14.6928 -2.91642 150.248 74.89 -211.793
lowerback 63.888 -9.22228 11.4306
upperback 17.2959 3.40688 6.31964
thorax -1.45523 3.71221 1.01841
lowerneck -4.09024 -13.0423 1.90806
upperneck -27.7594 -14.6972 16.4822
head -6.67695 -8.58258 5.59547
rclavicle -2.22639e-014 -7.93151e-014
rhumerus 26.42 7.48 -40.0345
rradius 22.3757
rwrist -5.89747
rhand -34.328 -2.46401
rfingers 7.12502
rthumb -7.49615 -32.3112
lclavicle -2.22639e-014 -7.93151e-014
lhumerus 15.5173 -36.4273 75.615
lradius 47.0369
lwrist 23.0315
lhand -12.7736 -9.01058
lfingers 7.12502
lthumb 13.3114 20.5443
rfemur -55.8899 -2.45263 8.82838
rtibia 78.8913
rfoot -15.295 -7.67309
rtoes -16.812
lfemur -47.6552 -2.75489 -33.3374
ltibia 73.0008
lfoot -16.7261 -10.837
ltoes 8.3264
217
root 6.34797 14.8087 -2.90761 150.937 74.9564 -211.043
lowerback 63.3853 -9.17318 11.4761
upperback 17.3586 3.34951 6.29128
thorax -1.38802 3.69245 0.968761
lowerneck -4.40398 -13.0184 1.77078
upperneck -27.4767 -14.7131 16.3784
head -6.52503 -8.54387 5.5322
rclavicle -2.22639e-014 4.85035e-014
rhumerus 25.8181 8.40103 -40.3918
rradius 22.7138
rwrist -6.02825
rhand -33.4581 -1.98271
rfingers 7.12502
rthumb -6.65643 -31.8581
lclavicle -2.22639e-014 4.85035e-014
lhumerus 15.6196 -36.4825 75.5452
lradius 47.013
lwrist 23.1172
lhand -12.9004 -8.93856
lfingers 7.12502
lthumb 13.1892 20.6242
rfemur -54.886 -2.30932 9.094
rtibia 77.5808
rfoot -15.0012 -7.73112
rtoes -16.6723
lfemur -46.6871 -2.81441 -32.9987
ltibia 71.6088
lfoot -16.3369 -10.7362
ltoes 7.80534
218
root 6.37514 14.9252 -2.89857 151.704 75.0301 -210.187
lowerback 62.9094 -9.13431 11.5246
upperback 17.3986 3.28672 6.26127
thorax -1.34363 3.66791 0.918561
lowerneck -4.68974 -12.9957 1.63056
upperneck -27.1679 -14.7336 16.2656
head -6.37022 -8.50743 5.46769
rclavicle 4.77083e-014 -3.49861e-014
rhumerus 25.1959 9.41206 -40.7468
rradius 23.0755
rwrist -6.19161
rhand -32.5317 -1.47142
rfingers 7.12502
rthumb -5.76213 -31.3731
lclavicle 4.77083e-014 -3.49861e-014
lhumerus 15.6434 -36.4514 75.5796
lradius 46.946
lwrist 23.0921
lhand -13.0052 -8.89459
lfingers 7.12502
lthumb 13.0882 20.6747
rfemur -53.8425 -2.18854 9.39202
rtibia 76.2612
rfoot -14.7046 -7.76734
rtoes -16.5058
lfemur -45.6903 -2.87393 -32.6328
ltibia 70.2145
lfoot -15.9374 -10.6267
ltoes 7.26913
219
root 6.40391 15.0394 -2.89004 152.482 75.0775 -209.279
lowerback 62.397 -9.10606 11.5524
upperback 17.4897 3.20544 6.25249
thorax -1.24337 3.63947 0.908568
lowerneck -4.99489 -12.9687 1.47149
upperneck -26.8979 -14.7434 16.1517
head -6.22482 -8.46388 5.40765
rclavicle -7.63333e-014 -4.49253e-014
rhumerus 24.6371 10.3951 -41.1088
rradius 23.4189
rwrist -6.31689
rhand -31.568 -0.972612
rfingers 7.12502
rthumb -4.83159 -30.8975
lclavicle -7.63333e-014 -4.49253e-014
lhumerus 15.7126 -36.39 75.6066
lradius 46.9001
lwrist 23.0798
lhand -13.1099 -8.89082
lfingers 7.12502
lthumb 12.9873 20.6849
rfemur -52.7422 -2.0951 9.68791
rtibia 74.9408
rfoot -14.4447 -7.79264
rtoes -16.3453
lfemur -44.6449 -2.93011 -32.2793
ltibia 68.8186
lfoot -15.566 -10.5298
ltoes 6.52624
220
root 6.43536 15.1522 -2.88054 153.337 75.1567 -208.308
lowerback 61.8803 -9.0801 11.6299
upperback 17.5494 3.13404 6.19403
thorax -1.16735 3.6187 0.819058
lowerneck -5.29397 -12.9389 1.43124
upperneck -26.5989 -14.7491 16.0243
head -6.08513 -8.42855 5.32705
rclavicle 9.22361e-014 6.71892e-014
rhumerus 23.9799 11.2917 -41.6344
rradius 23.7657
rwrist -6.34602
rhand -30.6112 -0.487413
rfingers 7.12502
rthumb -3.90772 -30.4313
lclavicle 9.22361e-014 6.71892e-014
lhumerus 15.7577 -36.4323 75.5309
lradius 46.9038
lwrist 23.0915
lhand -13.2433 -8.86828
lfingers 7.12502
lthumb 12.8586 20.7156
rfemur -51.6613 -1.98352 10.0265
rtibia 73.6175
rfoot -14.1652 -7.81251
rtoes -16.116
lfemur -43.61 -2.98224 -31.8845
ltibia 67.4208
lfoot -15.1823 -10.4133
ltoes 5.95544
221
root 6.46853 15.2641 -2.87066 154.139 75.1781 -207.359
lowerback 61.3778 -9.05324 11.6809
upperback 17.5505 3.04805 6.15624
thorax -1.16107 3.58004 0.765143
lowerneck -5.35596 -12.9052 1.35128
upperneck -26.3768 -14.7373 15.8952
head -6.00744 -8.39196 5.27636
rclavicle -3.49861e-014 -4.05521e-014
rhumerus 23.2245 12.4021 -42.1127
rradius 24.1331
rwrist -6.52136
rhand -29.6864 -0.0863209
rfingers 7.12502
rthumb -3.01465 -30.0448
lclavicle -3.49861e-014 -4.05521e-014
lhumerus 15.62 -36.475 75.5755
lradius 46.9228
lwrist 23.0355
lhand -13.3549 -8.87979
lfingers 7.12502
lthumb 12.7511 20.7109
rfemur -50.5399 -1.93684 10.3372
rtibia 72.3003
rfoot -13.9349 -7.8137
rtoes -15.9451
lfemur -42.5309 -3.04587 -31.5314
ltibia 66.0223
lfoot -14.8131 -10.3337
ltoes 5.27313
